<?xml version="1.0" encoding="UTF-8" standalone="no"?>
<svg
   xmlns:dc="http://purl.org/dc/elements/1.1/"
   xmlns:cc="http://creativecommons.org/ns#"
   xmlns:rdf="http://www.w3.org/1999/02/22-rdf-syntax-ns#"
   xmlns:svg="http://www.w3.org/2000/svg"
   xmlns="http://www.w3.org/2000/svg"
   xmlns:sodipodi="http://sodipodi.sourceforge.net/DTD/sodipodi-0.dtd"
   xmlns:inkscape="http://www.inkscape.org/namespaces/inkscape"
   inkscape:version="1.0 (4035a4f, 2020-05-01)"
   sodipodi:docname="vanoord-logo-white.svg"
   id="svg1774"
   version="1.1"
   viewBox="0 0 441.20119 138.6226">
  <metadata
     id="metadata1780">
    <rdf:RDF>
      <cc:Work
         rdf:about="">
        <dc:format>image/svg+xml</dc:format>
        <dc:type
           rdf:resource="http://purl.org/dc/dcmitype/StillImage" />
        <dc:title></dc:title>
      </cc:Work>
    </rdf:RDF>
  </metadata>
  <defs
     id="defs1778" />
  <sodipodi:namedview
     inkscape:current-layer="svg1774"
     inkscape:window-maximized="1"
     inkscape:window-y="23"
     inkscape:window-x="0"
     inkscape:cy="93.464653"
     inkscape:cx="205.50476"
     inkscape:zoom="2.4841274"
     inkscape:pagecheckerboard="true"
     showgrid="false"
     id="namedview1776"
     inkscape:window-height="1035"
     inkscape:window-width="1920"
     inkscape:pageshadow="2"
     inkscape:pageopacity="0"
     guidetolerance="10"
     gridtolerance="10"
     objecttolerance="10"
     borderopacity="1"
     bordercolor="#666666"
     pagecolor="#ffffff" />
  <path
     id="path1718"
     style="fill:#ffffff;fill-opacity:1"
     transform="translate(-69.30951 -45.69179)"
     d="M277.52,177.90519v-18.3818l-6.2041,16.8896h-3.1187l-6.0395-16.9253v18.4175h-2.7461v-22.6225h4.4433l6.2725,17.5,6.4473-17.5h3.9673v22.6225H277.52Z" />
  <path
     id="path1720"
     style="fill:#ffffff;fill-opacity:1"
     transform="translate(-69.30951 -45.69179)"
     d="M297.6797,178.27969a2.72166,2.72166,0,0,1-2.6778-2.4746,7.76874,7.76874,0,0,1-5.2207,2.4746,4.50785,4.50785,0,0,1-4.75-4.5444,4.69166,4.69166,0,0,1,2.0694-4.0024c2.1713-1.5962,4.8818-1.6289,7.4609-1.6289v-2.0015c0-2.0366-.9502-2.8833-2.9512-2.8833a11.48538,11.48538,0,0,0-5.1582,1.4595v-2.4776a14.68282,14.68282,0,0,1,5.6318-1.2539,6.05857,6.05857,0,0,1,4.4815,1.5908,4.79271,4.79271,0,0,1,1.0181,3.5645v7.5288c0,1.2568.0659,2.5459,1.6621,2.5459a2.47521,2.47521,0,0,0,.5063-0.0352l0.2002,1.6617A5.78182,5.78182,0,0,1,297.6797,178.27969Zm-3.1182-8.413c-0.3369,0-.7144-0.0328-1.0513-0.0328-2.103,0-5.4975.7803-5.4975,3.4253a2.57167,2.57167,0,0,0,2.6499,2.5786,6.52681,6.52681,0,0,0,3.8989-1.6616v-4.3095Z" />
  <path
     id="path1722"
     style="fill:#ffffff;fill-opacity:1"
     transform="translate(-69.30951 -45.69179)"
     d="M311.4941,163.59179c-2.2422,0-3.7314,1.5581-4.75,3.3896v10.9238H303.727v-16.5854h3.0171v3.1206a5.86826,5.86826,0,0,1,5.1885-3.4932,4.63046,4.63046,0,0,1,.9521.0659v2.81448A3.8987,3.8987,0,0,0,311.4941,163.59179Z" />
  <path
     id="path1724"
     style="fill:#ffffff;fill-opacity:1"
     transform="translate(-69.30951 -45.69179)"
     d="M316.5175,158.29979v-3.0171h3.0166v3.0171h-3.0166Zm0,19.6054v-16.5854h3.0166v16.5854h-3.0166Z" />
  <path
     id="path1726"
     style="fill:#ffffff;fill-opacity:1"
     transform="translate(-69.30951 -45.69179)"
     d="M336.1279,177.90519v-11.5674c0-1.5249-.6133-2.7788-2.3408-2.7788-2.374,0-3.9698,1.7632-5.1934,3.5948v10.7514h-3.0146v-16.5854h3.0146v3.1206a7.18226,7.18226,0,0,1,5.8067-3.4932c3.0527,0,4.747,2.1026,4.747,5.0537v11.9043h-3.0195Z" />
  <path
     id="path1728"
     style="fill:#ffffff;fill-opacity:1"
     transform="translate(-69.30951 -45.69179)"
     d="M346.71481,170.07219c0.37209,3.5923,1.94039,5.9331,5.79789,5.9331a12.8158,12.8158,0,0,0,4.61911-1.0185v2.3759a19.56322,19.56322,0,0,1-5.19341.917c-5.0839,0-8.2763-3.76412-8.2763-8.7192,0-4.3423,2.4424-8.6133,7.2275-8.6133,4.8164,0,6.3076,4.104,6.3076,8.2407v0.8843H346.71481Zm7.09079-4.7827a3.18579,3.18579,0,0,0-3.084-2.0703c-2.748,0-3.665,2.2373-3.8671,4.6133h7.3232A8.02815,8.02815,0,0,0,353.8056,165.28949Z" />
  <path
     id="path1730"
     style="fill:#ffffff;fill-opacity:1"
     transform="translate(-69.30951 -45.69179)"
     d="M372.3369,158.29979v-3.0171h3.0195v3.0171h-3.0195Zm0,19.6054v-16.5854h3.0195v16.5854h-3.0195Z" />
  <path
     id="path1732"
     style="fill:#ffffff;fill-opacity:1"
     transform="translate(-69.30951 -45.69179)"
     d="M391.9443,177.90519v-11.5674c0-1.5249-.6104-2.7788-2.3379-2.7788-2.374,0-3.9707,1.7632-5.1914,3.5948v10.7514h-3.0195v-16.5854h3.0195v3.1206a7.17265,7.17265,0,0,1,5.7969-3.4932c3.0527,0,4.75191,2.1026,4.75191,5.0537v11.9043H391.9443Z" />
  <path
     id="path1734"
     style="fill:#ffffff;fill-opacity:1"
     transform="translate(-69.30951 -45.69179)"
     d="M414.4736,174.88809c0,2.2012-.1699,4.8814-1.4922,6.7486-1.4238,2.0342-4.2051,2.6777-6.5439,2.6777a17.33131,17.33131,0,0,1-5.5655-.9121l0.34381-2.5786a11.30539,11.30539,0,0,0,5.15039,1.2182c3.6328,0,5.0918-1.8974,5.0918-5.3935v-2.61182a6.00917,6.00917,0,0,1-5.49419,3.49852c-4.54491,0-6.48041-4.0024-6.48041-8.04052,0-4.34468,2.4091-8.54738,7.1875-8.54738a5.7253,5.7253,0,0,1,4.7871,2.272v-1.8994h3.0156v13.5683Zm-3.0156-9.5986a5.8382,5.8382,0,0,0-4.3418-2.0703c-3.461,0-4.44339,3.4228-4.44339,6.27538,0,2.57622.74509,5.39352,3.86529,5.39352,2.0703,0,3.6308-1.2236,4.9199-2.7158v-6.8828Z" />
  <path
     id="path1736"
     style="fill:#ffffff;fill-opacity:1"
     transform="translate(-69.30951 -45.69179)"
     d="M422.04781,170.07219c0.36919,3.5923,1.93559,5.9331,5.79879,5.9331a12.80922,12.80922,0,0,0,4.6153-1.0185v2.3759a19.56309,19.56309,0,0,1-5.1934.917c-5.0859,0-8.2754-3.76412-8.2754-8.7192,0-4.3423,2.4414-8.6133,7.2266-8.6133,4.8164,0,6.3086,4.104,6.3086,8.2407v0.8843H422.04781Zm7.086-4.7827a3.18568,3.18568,0,0,0-3.08111-2.0703c-2.749,0-3.668,2.2373-3.8701,4.6133h7.3281A8.0329,8.0329,0,0,0,429.13381,165.28949Z" />
  <path
     id="path1738"
     style="fill:#ffffff;fill-opacity:1"
     transform="translate(-69.30951 -45.69179)"
     d="M448.3027,177.90519v-11.5674c0-1.5249-.6055-2.7788-2.335-2.7788-2.37689,0-3.9726,1.7632-5.1894,3.5948v10.7514h-3.02149v-16.5854h3.02149v3.1206a7.17028,7.17028,0,0,1,5.7988-3.4932c3.0508,0,4.7481,2.1026,4.7481,5.0537v11.9043h-3.0225Z" />
  <path
     id="path1740"
     style="fill:#ffffff;fill-opacity:1"
     transform="translate(-69.30951 -45.69179)"
     d="M467.5107,177.90519v-3.1211a7.12548,7.12548,0,0,1-5.7988,3.4956c-3.0176,0-4.75-2.1377-4.75-5.0537v-11.9062h3.0215v11.4961a2.90309,2.90309,0,0,0,.6132,2.105,2.41177,2.41177,0,0,0,1.7256.7802c2.30761,0,4-1.8672,5.1885-3.6303v-10.751h3.0215v16.5854h-3.0215Z" />
  <path
     id="path1742"
     style="fill:#ffffff;fill-opacity:1"
     transform="translate(-69.30951 -45.69179)"
     d="M476.5771,158.29979v-3.0171h3.0195v3.0171h-3.0195Zm0,19.6054v-16.5854h3.0195v16.5854h-3.0195Z" />
  <path
     id="path1744"
     style="fill:#ffffff;fill-opacity:1"
     transform="translate(-69.30951 -45.69179)"
     d="M488.75481,163.59179v9.1909c0,2.0014.64649,3.2578,2.81649,3.2578a5.28849,5.28849,0,0,0,1.4599-.2027v2.0674a9.71571,9.71571,0,0,1-2.4121.3745c-3.083,0-4.8818-1.8994-4.8818-4.955v-9.7329h-2.0694v-2.272h2.0694v-3.02l3.01751-.271v3.291h4.34179v2.272h-4.34179Z" />
  <path
     id="path1746"
     style="fill:#ffffff;fill-opacity:1"
     transform="translate(-69.30951 -45.69179)"
     d="M501.4111,183.94479h-3.1162l2.708-6.0396-6.4443-16.5854h3.2548l4.75,12.4814,5.0567-12.4814h2.8828Z" />
  <path
     d="M 319.47852 0 L 319.47852 80.121094 L 441.20117 80.121094 L 441.20117 0 L 319.47852 0 z M 323.08594 3.5664062 L 435.04492 3.5664062 L 408.68945 29.607422 A 9.43517 9.43517 0 0 1 397.875 30.289062 A 9.04221 9.04221 0 0 1 397.36523 15.197266 A 7.54145 7.54145 0 0 1 402.29883 13.710938 L 402.36523 13.710938 L 404.36523 13.857422 L 406.06055 13.933594 C 406.06055 13.933594 408.21093 13.558201 405.24023 10.925781 C 402.25783 8.2940015 397.21682 8.506813 393.44922 10.507812 L 393.46094 10.511719 A 0.0497 0.0497 0 0 1 393.44727 10.517578 C 387.98046 13.423378 383.54881 17.996094 377.69141 21.808594 C 361.58981 32.301274 340.34864 32.847153 323.08594 30.751953 L 323.08594 3.5664062 z M 437.59766 6.0859375 L 437.59766 76.558594 L 366.26562 76.558594 L 437.59766 6.0859375 z "
     style="fill:#ffffff;fill-opacity:1"
     id="rect1748" />
  <polygon
     id="polygon1754"
     style="fill:#ffffff;fill-opacity:1"
     points="0 33.698 11.972 33.698 23.063 67.538 23.18 67.538 34.048 33.698 41.523 33.698 26.569 80.121 15.301 80.121 0 33.698" />
  <path
     id="path1756"
     style="fill:#ffffff;fill-opacity:1"
     transform="translate(-69.30951 -45.69179)"
     d="M141.48341,125.81249a21.70887,21.70887,0,0,1-5.7203.768c-3.0981,0-6.2519-.5068-7.7719-3.8486h-0.7017a9.702,9.702,0,0,1-7.8789,3.8486,9.92663,9.92663,0,0,1-10.1611-10.33592c0-10.08008,9.1684-12.26418,12.9604-12.26418h5.7813v-2.1836c0-3.207-1.8648-4.6235-5.6065-4.6235a19.22779,19.22779,0,0,0-10.333,2.959v-7.7085a31.9356,31.9356,0,0,1,11.9141-2.1841c11.9697,0,14.5942,4.8818,14.5942,11.6255v13.543c0,1.4795-.0556,3.4707,1.8115,3.4707h1.1119v6.9336Zm-13.4922-14.8956h-2.2803c-1.9253,0-5.8921.1924-5.8921,4.3624a3.303,3.303,0,0,0,3.3311,3.5996,6.17692,6.17692,0,0,0,4.8413-2.7588v-5.2032Z" />
  <path
     id="path1758"
     style="fill:#ffffff;fill-opacity:1"
     transform="translate(-69.30951 -45.69179)"
     d="M159.22161,97.55849h0.6993c1.9277-4.3647,5.8369-7.3188,10.3408-7.3188,6.4194,0,9.4014,4.75,9.4014,10.853v24.7198h-11.2735v-20.8692c0-2.3105.1192-5.4546-2.7436-5.4546-2.5713,0-4.4966,2.8882-5.7251,5.0694v21.2544h-11.2705V91.01269h11.2705Z" />
  <path
     id="path1760"
     style="fill:#ffffff;fill-opacity:1"
     transform="translate(-69.30951 -45.69179)"
     d="M229.3921,78.23479c13.71771,0,22.8325,8.98778,22.8325,24.3955,0,15.4151-9.11479,24.3374-22.8325,24.3374-13.71829,0-22.8912-8.9223-22.8912-24.3374,0-15.40772,9.17291-24.3955,22.8912-24.3955m0,41.0293c7.9443,0,10.86271-9.1836,10.86271-16.6338,0-7.4453-2.91841-16.6943-10.86271-16.6943-8.0005,0-10.92629,9.249-10.92629,16.6943,0,7.4502,2.92579,16.6338,10.92629,16.6338" />
  <path
     id="path1762"
     style="fill:#ffffff;fill-opacity:1"
     transform="translate(-69.30951 -45.69179)"
     d="M256.42481,108.414c0-6.3613,2.57369-18.1743,17.57609-18.1743,15.0098,0,17.6343,11.813,17.6343,18.1743,0,6.3535-2.6245,18.1685-17.6343,18.1685-15.0024,0-17.57609-11.815-17.57609-18.1685m17.57609,11.2378c4.5547,0,5.6646-7.5166,5.6646-11.2378,0-3.7241-1.1099-11.2353-5.6646-11.2353-4.4965,0-5.6064,7.5112-5.6064,11.2353,0,3.7212,1.1099,11.2378,5.6064,11.2378" />
  <path
     id="path1764"
     style="fill:#ffffff;fill-opacity:1"
     transform="translate(-69.30951 -45.69179)"
     d="M309.207,97.55849h0.6992c1.9219-4.3647,5.8379-7.3188,10.335-7.3188h1.2793v10.916a9.77369,9.77369,0,0,0-4.2559-.8965,8.03316,8.03316,0,0,0-7.3584,4.2989v21.2544H298.62981V91.01269H309.9062Z" />
  <path
     id="path1766"
     style="fill:#ffffff;fill-opacity:1"
     transform="translate(-69.30951 -45.69179)"
     d="M348.0927,119.26409h-0.6992c-1.7558,4.5596-5.5429,7.3184-10.042,7.3184-9.1709,0-12.3222-8.6006-12.3222-17.335,0-9.3735,3.6787-19.00492,13.4921-19.00492,3.9678,0,5.834,1.28182,8.8721,3.85062h0.6992l-0.6992-3.0805V76.30419H358.664v49.5107H347.3935Zm-0.6992-18.3667c-1.1103-1.9253-2.7461-3.3335-4.8486-3.3335-4.3779,0-5.5449,7.0625-5.5449,10.72068,0,3.46582.8759,9.05182,5.0175,9.05182,2.6299,0,4.32231-2.5689,5.376-4.8794v-11.5596Z" />
  <rect
     id="rect1768"
     style="fill:#fff"
     transform="translate(8.15202 323.6209) rotate(-45.00067)"
     height="3.68137"
     width="3.68115"
     y="89.31287"
     x="482.68265" />
  <path
     id="path1770"
     style="fill:#fff"
     transform="translate(-69.30951 -45.69179)"
     d="M489.41455,100.04052l-0.92059,3.45227,5.06335,1.38086-0.08691.17377a53.6805,53.6805,0,0,0-3.30164,7.1911H486.3075V99.6953h-3.56732v12.54321H478.879a53.68048,53.68048,0,0,0-3.30164-7.1911l-0.08691-.17377,5.06335-1.38086-0.92059-3.45227-9.091,2.41656s5.29346,8.74573,5.63873,13.34875h16.68591c0.34528-4.603,5.63873-13.34875,5.63873-13.34875Z" />
  <rect
     id="rect1772"
     style="fill:#fff"
     height="2.56726"
     width="16.68591"
     y="49.36484"
     x="406.8714" />
</svg>
